<svg width="44" height="44" viewBox="0 0 44 44" fill="none" xmlns="http://www.w3.org/2000/svg">
<path d="M27.4999 14.1423C27.0809 14.377 26.7319 14.7192 26.4891 15.1336C26.2462 15.548 26.1182 16.0196 26.1182 16.5C26.1182 16.9803 26.2462 17.4519 26.4891 17.8663C26.7319 18.2807 27.0809 18.6229 27.4999 18.8576L26.5796 21.945C26.0822 21.859 25.5707 21.9142 25.1032 22.1042C24.6356 22.2942 24.2306 22.6114 23.9341 23.0199C23.6377 23.4284 23.4617 23.9118 23.426 24.4153C23.3903 24.9187 23.4965 25.4221 23.7324 25.8683L21.0869 27.9253C20.7365 27.6382 20.3196 27.4438 19.8744 27.3601C19.4292 27.2764 18.9701 27.3061 18.5394 27.4463C18.1086 27.5865 17.7201 27.8328 17.4095 28.1626C17.0989 28.4924 16.8763 28.8949 16.7621 29.3333L12.5381 29.3223C12.4222 28.8866 12.1992 28.4869 11.8892 28.1595C11.5792 27.8322 11.1923 27.5876 10.7636 27.4482C10.3349 27.3088 9.87806 27.2789 9.43484 27.3612C8.99161 27.4436 8.57606 27.6356 8.22609 27.9198L5.58242 25.8463C5.81202 25.4018 5.91367 24.9024 5.87601 24.4035C5.83835 23.9047 5.66288 23.4261 5.36916 23.0212C5.07544 22.6163 4.67501 22.3009 4.21253 22.1102C3.75004 21.9195 3.24369 21.861 2.74992 21.9413L1.83325 18.843C2.2449 18.606 2.58683 18.2648 2.82459 17.8536C3.06235 17.4424 3.18753 16.9758 3.18753 16.5009C3.18753 16.0259 3.06235 15.5593 2.82459 15.1482C2.58683 14.737 2.2449 14.3957 1.83325 14.1588L2.74992 11.0605C3.24369 11.1407 3.75004 11.0822 4.21253 10.8916C4.67501 10.7009 5.07544 10.3855 5.36916 9.98055C5.66288 9.57561 5.83835 9.09705 5.87601 8.59822C5.91367 8.09939 5.81202 7.5999 5.58242 7.15546L8.22609 5.07829C8.57607 5.36287 8.99177 5.55525 9.43522 5.63786C9.87868 5.72047 10.3358 5.69068 10.7647 5.55122C11.1937 5.41175 11.5809 5.16704 11.891 4.83944C12.2011 4.51184 12.4242 4.11178 12.5399 3.67579L16.7621 3.66663C16.8764 4.10466 17.0991 4.50692 17.4095 4.83642C17.72 5.16592 18.1083 5.41209 18.5387 5.55229C18.9692 5.69249 19.428 5.72222 19.8729 5.63876C20.3179 5.55529 20.7347 5.3613 21.0851 5.07463L23.7324 7.13163C23.4965 7.57782 23.3903 8.0812 23.426 8.58466C23.4617 9.08812 23.6377 9.57151 23.9341 9.98001C24.2306 10.3885 24.6356 10.7057 25.1032 10.8957C25.5707 11.0857 26.0822 11.1409 26.5796 11.055L27.4999 14.1423ZM14.6666 22C15.3889 22 16.1041 21.8577 16.7713 21.5813C17.4386 21.3049 18.045 20.8998 18.5557 20.389C19.0664 19.8783 19.4715 19.272 19.7479 18.6047C20.0243 17.9374 20.1666 17.2222 20.1666 16.5C20.1666 15.7777 20.0243 15.0625 19.7479 14.3952C19.4715 13.7279 19.0664 13.1216 18.5557 12.6109C18.045 12.1002 17.4386 11.695 16.7713 11.4186C16.1041 11.1422 15.3889 11 14.6666 11C13.2079 11 11.8089 11.5794 10.7775 12.6109C9.74605 13.6423 9.16658 15.0413 9.16658 16.5C9.16658 17.9587 9.74605 19.3576 10.7775 20.389C11.8089 21.4205 13.2079 22 14.6666 22ZM28.2204 22.1118C29.1952 19.7611 29.5396 17.1967 29.2196 14.6721L31.4306 14.6666C31.5449 15.1047 31.7676 15.5069 32.078 15.8364C32.3885 16.1659 32.7768 16.4121 33.2072 16.5523C33.6377 16.6925 34.0965 16.7222 34.5414 16.6388C34.9864 16.5553 35.4032 16.3613 35.7536 16.0746L38.4009 18.1316C38.165 18.5778 38.0588 19.0812 38.0945 19.5847C38.1302 20.0881 38.3062 20.5715 38.6026 20.98C38.8991 21.3885 39.3041 21.7057 39.7717 21.8957C40.2393 22.0857 40.7507 22.1409 41.2481 22.055L42.1666 25.1423C41.7475 25.377 41.3986 25.7192 41.1557 26.1336C40.9129 26.548 40.7849 27.0196 40.7849 27.5C40.7849 27.9803 40.9129 28.4519 41.1557 28.8663C41.3986 29.2807 41.7475 29.6229 42.1666 29.8576L41.2463 32.945C40.7489 32.859 40.2374 32.9142 39.7698 33.1042C39.3022 33.2942 38.8972 33.6114 38.6008 34.0199C38.3044 34.4284 38.1283 34.9118 38.0927 35.4153C38.057 35.9187 38.1632 36.4221 38.3991 36.8683L35.7536 38.9253C35.4032 38.6382 34.9862 38.4438 34.541 38.3601C34.0959 38.2764 33.6368 38.3061 33.206 38.4463C32.7753 38.5865 32.3868 38.8328 32.0762 39.1626C31.7656 39.4924 31.543 39.8949 31.4287 40.3333L27.2048 40.3223C27.0889 39.8866 26.8658 39.4869 26.5559 39.1595C26.2459 38.8322 25.8589 38.5876 25.4302 38.4482C25.0015 38.3088 24.5447 38.2789 24.1015 38.3612C23.6583 38.4436 23.2427 38.6356 22.8928 38.9198L20.2491 36.8463C20.4787 36.4018 20.5803 35.9024 20.5427 35.4035C20.505 34.9047 20.3295 34.4261 20.0358 34.0212C19.7421 33.6163 19.3417 33.3009 18.8792 33.1102C18.4167 32.9195 17.9104 32.861 17.4166 32.9413L16.8446 31.0053C19.4108 30.6229 21.8289 29.5635 23.8498 27.9363C23.9387 29.0496 24.3645 30.1094 25.0704 30.9748C25.7763 31.8402 26.729 32.4702 27.8017 32.781C28.8744 33.0918 30.0163 33.0686 31.0755 32.7147C32.1348 32.3607 33.0611 31.6926 33.7314 30.7993C34.4018 29.9061 34.7843 28.8299 34.828 27.7139C34.8718 26.598 34.5749 25.4951 33.9766 24.552C33.3784 23.609 32.5072 22.8704 31.479 22.4345C30.4507 21.9986 29.3142 21.886 28.2204 22.1118Z" fill="white"/>
</svg>
