<svg width="633" height="105" viewBox="0 0 633 105" fill="none" xmlns="http://www.w3.org/2000/svg">
<path d="M42.896 104.28C36.6667 104.28 30.9493 103.171 25.744 100.952C20.5387 98.7333 16.016 95.576 12.176 91.48C8.336 87.2987 5.34933 82.392 3.216 76.76C1.168 71.128 0.144 64.9413 0.144 58.2C0.144 51.8 1.25333 45.8693 3.472 40.408C5.776 34.8613 8.93333 29.9973 12.944 25.816C16.9547 21.6347 21.6053 18.392 26.896 16.088C32.1867 13.784 37.904 12.632 44.048 12.632C48.4 12.632 52.624 13.3147 56.72 14.68C60.9013 15.96 64.656 17.7947 67.984 20.184C71.3973 22.488 74.1707 25.1333 76.304 28.12L67.088 37.72C64.6133 35.2453 62.096 33.1973 59.536 31.576C57.0613 29.8693 54.5013 28.5893 51.856 27.736C49.296 26.8827 46.6933 26.456 44.048 26.456C39.8667 26.456 35.9413 27.2667 32.272 28.888C28.688 30.424 25.5307 32.6 22.8 35.416C20.1547 38.232 18.064 41.6027 16.528 45.528C14.992 49.368 14.224 53.592 14.224 58.2C14.224 63.064 14.9493 67.5013 16.4 71.512C17.936 75.4373 20.0693 78.808 22.8 81.624C25.5307 84.44 28.7733 86.616 32.528 88.152C36.368 89.6027 40.592 90.328 45.2 90.328C48.016 90.328 50.7893 89.944 53.52 89.176C56.2507 88.408 58.8107 87.2987 61.2 85.848C63.5893 84.3973 65.7653 82.6907 67.728 80.728L74.64 91.992C72.6773 94.296 69.9893 96.3867 66.576 98.264C63.248 100.141 59.4933 101.635 55.312 102.744C51.216 103.768 47.0773 104.28 42.896 104.28ZM115.179 104.28C108.608 104.28 102.72 102.787 97.515 99.8C92.395 96.728 88.3417 92.5893 85.355 87.384C82.3683 82.0933 80.875 76.0773 80.875 69.336C80.875 62.5947 82.3683 56.6213 85.355 51.416C88.3417 46.1253 92.395 41.9867 97.515 39C102.72 35.928 108.608 34.392 115.179 34.392C121.664 34.392 127.467 35.928 132.587 39C137.792 41.9867 141.888 46.1253 144.875 51.416C147.862 56.6213 149.355 62.5947 149.355 69.336C149.355 76.0773 147.862 82.0933 144.875 87.384C141.888 92.5893 137.792 96.728 132.587 99.8C127.467 102.787 121.664 104.28 115.179 104.28ZM115.179 92.248C119.19 92.248 122.774 91.2667 125.931 89.304C129.088 87.256 131.563 84.5253 133.355 81.112C135.147 77.6133 136 73.688 135.915 69.336C136 64.8987 135.147 60.9733 133.355 57.56C131.563 54.0613 129.088 51.3307 125.931 49.368C122.774 47.4053 119.19 46.424 115.179 46.424C111.168 46.424 107.542 47.448 104.299 49.496C101.142 51.4587 98.667 54.1893 96.875 57.688C95.083 61.1013 94.2297 64.984 94.315 69.336C94.2297 73.688 95.083 77.6133 96.875 81.112C98.667 84.5253 101.142 87.256 104.299 89.304C107.542 91.2667 111.168 92.248 115.179 92.248ZM158.601 103V35.8H171.785V49.624L169.481 51.16C170.334 48.1733 171.998 45.4427 174.473 42.968C176.948 40.408 179.892 38.36 183.305 36.824C186.718 35.2027 190.217 34.392 193.801 34.392C198.921 34.392 203.188 35.416 206.601 37.464C210.014 39.4267 212.574 42.456 214.281 46.552C215.988 50.648 216.841 55.8107 216.841 62.04V103H203.657V62.936C203.657 59.096 203.145 55.9387 202.121 53.464C201.097 50.904 199.518 49.0693 197.385 47.96C195.252 46.7653 192.606 46.2533 189.449 46.424C186.889 46.424 184.542 46.8507 182.409 47.704C180.276 48.472 178.398 49.5813 176.777 51.032C175.241 52.4827 174.004 54.1893 173.065 56.152C172.212 58.0293 171.785 60.0773 171.785 62.296V103H165.257C164.148 103 163.038 103 161.929 103C160.82 103 159.71 103 158.601 103ZM229.606 103V35.8H242.79V49.624L240.486 51.16C241.339 48.1733 243.003 45.4427 245.478 42.968C247.953 40.408 250.897 38.36 254.31 36.824C257.723 35.2027 261.222 34.392 264.806 34.392C269.926 34.392 274.193 35.416 277.606 37.464C281.019 39.4267 283.579 42.456 285.286 46.552C286.993 50.648 287.846 55.8107 287.846 62.04V103H274.662V62.936C274.662 59.096 274.15 55.9387 273.126 53.464C272.102 50.904 270.523 49.0693 268.39 47.96C266.257 46.7653 263.611 46.2533 260.454 46.424C257.894 46.424 255.547 46.8507 253.414 47.704C251.281 48.472 249.403 49.5813 247.782 51.032C246.246 52.4827 245.009 54.1893 244.07 56.152C243.217 58.0293 242.79 60.0773 242.79 62.296V103H236.262C235.153 103 234.043 103 232.934 103C231.825 103 230.715 103 229.606 103ZM331.971 104.28C325.059 104.28 318.915 102.829 313.539 99.928C308.248 96.9413 304.067 92.888 300.995 87.768C298.008 82.648 296.515 76.76 296.515 70.104C296.515 64.8133 297.368 59.992 299.075 55.64C300.782 51.288 303.128 47.5333 306.115 44.376C309.187 41.1333 312.814 38.6587 316.995 36.952C321.262 35.16 325.87 34.264 330.819 34.264C335.171 34.264 339.224 35.1173 342.979 36.824C346.734 38.4453 349.976 40.7067 352.707 43.608C355.523 46.5093 357.656 49.9653 359.107 53.976C360.643 57.9013 361.368 62.2107 361.283 66.904L361.155 72.536H306.243L303.299 62.04H349.763L347.843 64.216V61.144C347.587 58.328 346.648 55.8107 345.027 53.592C343.406 51.3733 341.358 49.624 338.883 48.344C336.408 47.064 333.72 46.424 330.819 46.424C326.211 46.424 322.328 47.32 319.171 49.112C316.014 50.8187 313.624 53.3787 312.003 56.792C310.382 60.12 309.571 64.2587 309.571 69.208C309.571 73.9013 310.552 77.9973 312.515 81.496C314.478 84.9093 317.251 87.5547 320.835 89.432C324.419 91.3093 328.558 92.248 333.251 92.248C336.579 92.248 339.651 91.6933 342.467 90.584C345.368 89.4747 348.483 87.4693 351.811 84.568L358.467 93.912C356.419 95.96 353.902 97.752 350.915 99.288C348.014 100.824 344.899 102.061 341.571 103C338.328 103.853 335.128 104.28 331.971 104.28ZM399.035 104.28C392.806 104.28 387.216 102.744 382.267 99.672C377.403 96.6 373.52 92.4187 370.619 87.128C367.803 81.8373 366.395 75.9067 366.395 69.336C366.395 62.7653 367.803 56.8347 370.619 51.544C373.52 46.2533 377.403 42.072 382.267 39C387.216 35.928 392.806 34.392 399.035 34.392C405.008 34.392 410.427 35.6293 415.291 38.104C420.24 40.4933 423.995 43.7787 426.555 47.96L419.259 56.92C417.894 54.9573 416.144 53.1653 414.011 51.544C411.878 49.9227 409.616 48.6427 407.227 47.704C404.838 46.7653 402.534 46.296 400.315 46.296C396.219 46.296 392.55 47.32 389.307 49.368C386.15 51.3307 383.632 54.0613 381.755 57.56C379.878 61.0587 378.939 64.984 378.939 69.336C378.939 73.688 379.92 77.6133 381.883 81.112C383.846 84.5253 386.448 87.256 389.691 89.304C392.934 91.352 396.518 92.376 400.443 92.376C402.747 92.376 404.966 91.992 407.099 91.224C409.318 90.456 411.451 89.304 413.499 87.768C415.547 86.232 417.467 84.3547 419.259 82.136L426.555 91.096C423.824 94.936 419.899 98.0933 414.779 100.568C409.744 103.043 404.496 104.28 399.035 104.28ZM442.191 103V18.648H455.375V103H442.191ZM428.239 48.6V35.8H470.991V48.6H428.239ZM537.183 104.28C532.404 104.28 528.223 103.171 524.639 100.952C521.14 98.7333 518.41 95.6187 516.447 91.608C514.57 87.5973 513.631 82.8187 513.631 77.272V35.8H526.815V73.688C526.815 77.6133 527.412 81.0267 528.607 83.928C529.887 86.744 531.679 88.92 533.983 90.456C536.372 91.992 539.231 92.76 542.559 92.76C545.034 92.76 547.295 92.376 549.343 91.608C551.391 90.7547 553.14 89.6027 554.591 88.152C556.127 86.7013 557.322 84.952 558.175 82.904C559.028 80.856 559.455 78.6373 559.455 76.248V35.8H572.639V103H559.455V88.92L561.759 87.384C560.735 90.5413 558.986 93.4 556.511 95.96C554.122 98.52 551.263 100.568 547.935 102.104C544.607 103.555 541.023 104.28 537.183 104.28ZM608.411 104.28C602.779 104.28 597.702 103.299 593.179 101.336C588.656 99.3733 584.902 96.472 581.915 92.632L590.875 84.952C593.435 87.9387 596.208 90.1147 599.195 91.48C602.267 92.76 605.723 93.4 609.563 93.4C611.099 93.4 612.507 93.2293 613.787 92.888C615.152 92.4613 616.304 91.864 617.243 91.096C618.267 90.328 619.035 89.432 619.547 88.408C620.059 87.2987 620.315 86.104 620.315 84.824C620.315 82.6053 619.504 80.8133 617.883 79.448C617.03 78.8507 615.664 78.2107 613.787 77.528C611.995 76.76 609.648 75.992 606.747 75.224C601.798 73.944 597.744 72.4933 594.587 70.872C591.43 69.2507 588.998 67.416 587.291 65.368C586.011 63.7467 585.072 61.9973 584.475 60.12C583.878 58.1573 583.579 56.024 583.579 53.72C583.579 50.904 584.176 48.344 585.371 46.04C586.651 43.6507 588.358 41.6027 590.491 39.896C592.71 38.104 595.27 36.7387 598.171 35.8C601.158 34.8613 604.315 34.392 607.643 34.392C610.8 34.392 613.915 34.8187 616.987 35.672C620.144 36.5253 623.046 37.7627 625.691 39.384C628.336 41.0053 630.555 42.9253 632.347 45.144L624.795 53.464C623.174 51.8427 621.382 50.4347 619.419 49.24C617.542 47.96 615.622 46.9787 613.659 46.296C611.696 45.6133 609.904 45.272 608.283 45.272C606.491 45.272 604.87 45.4427 603.419 45.784C601.968 46.1253 600.731 46.6373 599.707 47.32C598.768 48.0027 598.043 48.856 597.531 49.88C597.019 50.904 596.763 52.056 596.763 53.336C596.848 54.4453 597.104 55.512 597.531 56.536C598.043 57.4747 598.726 58.2853 599.579 58.968C600.518 59.6507 601.926 60.376 603.803 61.144C605.68 61.912 608.07 62.6373 610.971 63.32C615.238 64.4293 618.736 65.6667 621.467 67.032C624.283 68.312 626.502 69.8053 628.123 71.512C629.83 73.1333 631.024 75.0107 631.707 77.144C632.39 79.2773 632.731 81.6667 632.731 84.312C632.731 88.152 631.622 91.608 629.403 94.68C627.27 97.6667 624.368 100.013 620.699 101.72C617.03 103.427 612.934 104.28 608.411 104.28Z" fill="white"/>
<path d="M478.9 103V35.032H499.38V103H478.9ZM489.14 21.592C485.3 21.592 482.271 20.696 480.052 18.904C477.919 17.0267 476.852 14.3813 476.852 10.968C476.852 7.89599 477.961 5.37866 480.18 3.41599C482.399 1.45333 485.385 0.471992 489.14 0.471992C492.98 0.471992 495.967 1.41066 498.1 3.28799C500.233 5.08 501.3 7.64 501.3 10.968C501.3 14.1253 500.191 16.6853 497.972 18.648C495.839 20.6107 492.895 21.592 489.14 21.592Z" fill="#1E1E1E"/>
</svg>
