<svg width="24" height="24" viewBox="0 0 24 24" fill="none" xmlns="http://www.w3.org/2000/svg">
<path d="M15 7.714C14.7714 7.84203 14.5811 8.02868 14.4486 8.25471C14.3162 8.48075 14.2463 8.73801 14.2463 9C14.2463 9.26199 14.3162 9.51925 14.4486 9.74529C14.5811 9.97132 14.7714 10.158 15 10.286L14.498 11.97C14.2267 11.9231 13.9477 11.9532 13.6927 12.0568C13.4376 12.1605 13.2167 12.3335 13.055 12.5563C12.8933 12.7792 12.7973 13.0428 12.7779 13.3174C12.7584 13.5921 12.8163 13.8666 12.945 14.11L11.502 15.232C11.3109 15.0754 11.0834 14.9694 10.8406 14.9237C10.5978 14.8781 10.3474 14.8942 10.1124 14.9707C9.87748 15.0472 9.66555 15.1816 9.49614 15.3614C9.32673 15.5413 9.20529 15.7609 9.143 16L6.839 15.994C6.77581 15.7564 6.65413 15.5383 6.48506 15.3598C6.31599 15.1812 6.10492 15.0478 5.87108 14.9718C5.63724 14.8957 5.38808 14.8794 5.14632 14.9243C4.90456 14.9693 4.6779 15.074 4.487 15.229L3.045 14.098C3.17024 13.8556 3.22568 13.5831 3.20514 13.311C3.1846 13.039 3.08889 12.7779 2.92868 12.557C2.76846 12.3362 2.55005 12.1641 2.29779 12.0601C2.04552 11.9561 1.76933 11.9242 1.5 11.968L1 10.278C1.22454 10.1488 1.41104 9.96263 1.54073 9.73835C1.67041 9.51407 1.7387 9.25957 1.7387 9.0005C1.7387 8.74143 1.67041 8.48693 1.54073 8.26265C1.41104 8.03837 1.22454 7.85224 1 7.723L1.5 6.033C1.76933 6.07678 2.04552 6.04488 2.29779 5.94088C2.55005 5.83687 2.76846 5.66483 2.92868 5.44396C3.08889 5.22308 3.1846 4.96205 3.20514 4.68996C3.22568 4.41787 3.17024 4.14542 3.045 3.903L4.487 2.77C4.6779 2.92523 4.90465 3.03016 5.14653 3.07522C5.38841 3.12028 5.63773 3.10403 5.87172 3.02796C6.10571 2.95188 6.31692 2.81841 6.48606 2.63972C6.6552 2.46103 6.77688 2.24281 6.84 2.005L9.143 2C9.20537 2.23893 9.3268 2.45834 9.49614 2.63807C9.66548 2.8178 9.87728 2.95207 10.1121 3.02854C10.3469 3.10502 10.5971 3.12124 10.8398 3.07571C11.0825 3.03018 11.3099 2.92437 11.501 2.768L12.945 3.89C12.8163 4.13338 12.7584 4.40795 12.7779 4.68256C12.7973 4.95718 12.8933 5.22085 13.055 5.44366C13.2167 5.66648 13.4376 5.83952 13.6927 5.94315C13.9477 6.04679 14.2267 6.07688 14.498 6.03L15 7.714ZM8 12C8.39397 12 8.78407 11.9224 9.14805 11.7716C9.51203 11.6209 9.84274 11.3999 10.1213 11.1213C10.3999 10.8427 10.6209 10.512 10.7716 10.1481C10.9224 9.78407 11 9.39397 11 9C11 8.60603 10.9224 8.21593 10.7716 7.85195C10.6209 7.48797 10.3999 7.15726 10.1213 6.87868C9.84274 6.6001 9.51203 6.37913 9.14805 6.22836C8.78407 6.0776 8.39397 6 8 6C7.20435 6 6.44129 6.31607 5.87868 6.87868C5.31607 7.44129 5 8.20435 5 9C5 9.79565 5.31607 10.5587 5.87868 11.1213C6.44129 11.6839 7.20435 12 8 12ZM15.393 12.061C15.9247 10.7788 16.1125 9.38005 15.938 8.003L17.144 8C17.2064 8.23893 17.3278 8.45834 17.4971 8.63807C17.6665 8.8178 17.8783 8.95207 18.1131 9.02854C18.3479 9.10502 18.5981 9.12124 18.8408 9.07571C19.0835 9.03018 19.3109 8.92437 19.502 8.768L20.946 9.89C20.8173 10.1334 20.7594 10.4079 20.7789 10.6826C20.7983 10.9572 20.8943 11.2208 21.056 11.4437C21.2177 11.6665 21.4386 11.8395 21.6937 11.9432C21.9487 12.0468 22.2277 12.0769 22.499 12.03L23 13.714C22.7714 13.842 22.5811 14.0287 22.4486 14.2547C22.3162 14.4807 22.2463 14.738 22.2463 15C22.2463 15.262 22.3162 15.5193 22.4486 15.7453C22.5811 15.9713 22.7714 16.158 23 16.286L22.498 17.97C22.2267 17.9231 21.9477 17.9532 21.6927 18.0568C21.4376 18.1605 21.2167 18.3335 21.055 18.5563C20.8933 18.7792 20.7973 19.0428 20.7779 19.3174C20.7584 19.5921 20.8163 19.8666 20.945 20.11L19.502 21.232C19.3109 21.0754 19.0834 20.9694 18.8406 20.9237C18.5978 20.8781 18.3474 20.8942 18.1124 20.9707C17.8775 21.0472 17.6655 21.1816 17.4961 21.3614C17.3267 21.5413 17.2053 21.7609 17.143 22L14.839 21.994C14.7758 21.7564 14.6541 21.5383 14.4851 21.3598C14.316 21.1812 14.1049 21.0478 13.8711 20.9718C13.6372 20.8957 13.3881 20.8794 13.1463 20.9243C12.9046 20.9693 12.6779 21.074 12.487 21.229L11.045 20.098C11.1702 19.8556 11.2257 19.5831 11.2051 19.311C11.1846 19.039 11.0889 18.7779 10.9287 18.557C10.7685 18.3362 10.55 18.1641 10.2978 18.0601C10.0455 17.9561 9.76933 17.9242 9.5 17.968L9.188 16.912C10.5878 16.7034 11.9067 16.1256 13.009 15.238C13.0575 15.8452 13.2897 16.4233 13.6748 16.8954C14.0599 17.3674 14.5795 17.711 15.1646 17.8806C15.7497 18.0501 16.3726 18.0375 16.9503 17.8444C17.5281 17.6513 18.0334 17.2869 18.399 16.7997C18.7646 16.3124 18.9733 15.7254 18.9972 15.1167C19.0211 14.508 18.8591 13.9065 18.5328 13.392C18.2064 12.8776 17.7313 12.4748 17.1704 12.237C16.6095 11.9992 15.9896 11.9379 15.393 12.061Z" fill="#464646"/>
</svg>
